<svg xmlns="http://www.w3.org/2000/svg" width="24" height="24" viewBox="0 0 1024 1024">
    <path fill="#FFFFFF" d="M438.1,454.1A73.9,73.9 0,1 0,512 380.2a73.9,73.9 0,0 0,-73.9 73.9zM743.7,380.2a73.9,73.9 0,1 1,-73.9 73.9,73.9 73.9,0 0,1 73.9,-73.9zM280,380.2a73.9,73.9 0,1 1,-73.9 73.9,73.9 73.9,0 0,1 73.9,-73.9zM32,454.1c0,232.6 215,421.8 480,421.8 15.7,0 32,0 49.3,-2.6l256,128v-224A401.6,401.6 0,0 0,992 454.1C992,221.4 776.6,32 512,32s-480,189.4 -480,422.1zM121.9,454.1C122.2,271 297,122.2 512,122.2S901.8,271 901.8,454.1A320,320 0,0 1,736 723.8l-7.7,4.8L728.3,864l-144,-72a11.8,11.8 0,0 0,-5.8 -2.9L512,789.1c-215,-3.2 -389.8,-152 -389.8,-335z"/>
</svg>