<svg xmlns="http://www.w3.org/2000/svg" width="1024" height="1024" viewBox="0 0 1024 1024">
    <path fill="#FFFFFF" d="M704,128c-73.6,0 -144,35.2 -192,89.6C464,163.2 393.6,128 320,128c-131.2,0 -233.6,102.4 -233.6,233.6 0,160 144,291.2 364.8,492.8l60.8,54.4 60.8,-57.6c220.8,-198.4 364.8,-329.6 364.8,-492.8 0,-128 -102.4,-230.4 -233.6,-230.4zM515.2,790.4l-3.2,6.4 -3.2,-3.2C304,608 169.6,486.4 169.6,361.6c0,-86.4 64,-150.4 150.4,-150.4 67.2,0 131.2,41.6 153.6,99.2h80c19.2,-54.4 83.2,-96 150.4,-96 86.4,0 150.4,64 150.4,150.4 0,121.6 -134.4,243.2 -339.2,425.6z"/>
</svg>