<svg xmlns="http://www.w3.org/2000/svg" width="800" height="800" viewBox="0 0 371.94 371.94">
    <path fill="#1E252B" d="M190.66,36.3c-82.66,0 -149.66,67.01 -149.66,149.67s67.01,149.67 149.66,149.67c82.66,0 149.66,-67.01 149.66,-149.67S273.32,36.3 190.66,36.3zM190.66,198.21c-6.76,0 -12.24,-5.48 -12.24,-12.24c0,-6.76 5.48,-12.24 12.24,-12.24c6.76,0 12.24,5.48 12.24,12.24C202.9,192.73 197.42,198.21 190.66,198.21z"/>
    <path fill="#004D7A" d="M287.2,278.15c-0.49,0 -0.98,-0.18 -1.37,-0.54c-0.81,-0.75 -0.85,-2.02 -0.1,-2.83c22.59,-24.17 35.03,-55.71 35.03,-88.82c0,-4.53 -0.23,-9.09 -0.7,-13.57c-0.11,-1.1 0.69,-2.08 1.78,-2.19c1.1,-0.12 2.08,0.68 2.19,1.78c0.48,4.61 0.72,9.32 0.72,13.98c0,34.12 -12.82,66.63 -36.11,91.55C288.27,277.94 287.73,278.15 287.2,278.15z"/>
    <path fill="#004D7A" d="M190.66,320.08c-6.63,0 -13.29,-0.49 -19.78,-1.45c-1.09,-0.16 -1.85,-1.18 -1.69,-2.27c0.16,-1.09 1.17,-1.85 2.27,-1.69c6.3,0.93 12.77,1.41 19.2,1.41c19.51,0 38.27,-4.21 55.75,-12.52c1,-0.47 2.19,-0.05 2.66,0.95c0.47,1 0.05,2.19 -0.95,2.66C230.11,315.73 210.77,320.08 190.66,320.08z"/>
    <path fill="#004D7A" d="M132.52,306.63c-0.3,0 -0.6,-0.06 -0.88,-0.2c-34.11,-16.74 -59.61,-47.24 -69.98,-83.68c-0.30,-1.06 0.31,-2.17 1.38,-2.47c1.06,-0.30 2.17,0.31 2.47,1.38c10.06,35.35 34.81,64.94 67.90,81.18c0.99,0.49 1.40,1.68 0.91,2.68C133.97,306.21 133.26,306.63 132.52,306.63z"/>
    <path fill="#004D7A" d="M60.31,209.56c-0.96,0 -1.81,-0.69 -1.97,-1.68c-1.18,-7.19 -1.78,-14.56 -1.78,-21.91c0,-1.11 0.90,-2 2,-2c1.10,0 2,0.89 2,2c0,7.13 0.58,14.28 1.73,21.26c0.18,1.09 -0.56,2.12 -1.65,2.30C60.52,209.55 60.42,209.56 60.31,209.56z"/>
    <path fill="#004D7A" d="M63.59,151.73c-0.18,0 -0.37,-0.03 -0.55,-0.08c-1.06,-0.30 -1.68,-1.41 -1.38,-2.47c10.37,-36.43 35.88,-66.93 69.98,-83.67c0.99,-0.49 2.19,-0.08 2.68,0.91c0.49,0.99 0.08,2.19 -0.91,2.68c-33.09,16.24 -57.83,45.83 -67.89,81.17C65.26,151.16 64.46,151.73 63.59,151.73z"/>
    <path fill="#004D7A" d="M282.44,92.94c-0.50,0 -1,-0.19 -1.39,-0.56c-24.38,-23.55 -56.48,-36.52 -90.39,-36.52c-1.10,0 -2,-0.90 -2,-2s0.90,-2 2,-2c34.95,0 68.04,13.37 93.17,37.65c0.79,0.77 0.82,2.03 0.05,2.83C283.48,92.74 282.96,92.94 282.44,92.94z"/>
    <path fill="#004D7A" d="M258.03,210.72c-0.21,0 -0.43,-0.04 -0.64,-0.11c-1.05,-0.35 -1.61,-1.49 -1.25,-2.54c2.41,-7.10 3.63,-14.54 3.63,-22.11c0,-10.15 -2.16,-19.93 -6.41,-29.06c-0.47,-1 -0.03,-2.19 0.97,-2.66c1,-0.47 2.19,-0.03 2.66,0.97c4.50,9.66 6.79,20 6.79,30.75c0,8.01 -1.29,15.88 -3.84,23.39C259.64,210.20 258.87,210.72 258.03,210.72z"/>
    <path fill="#004D7A" d="M190.93,258.81c-23.15,0 -44.41,-10.64 -58.32,-29.19c-0.66,-0.88 -0.48,-2.14 0.40,-2.80c0.88,-0.66 2.14,-0.48 2.80,0.40c13.15,17.53 33.23,27.59 55.12,27.59c11.56,0 23,-2.92 33.07,-8.45c0.97,-0.53 2.18,-0.18 2.72,0.79c0.53,0.97 0.18,2.18 -0.79,2.71C215.26,255.71 203.16,258.81 190.93,258.81z"/>
    <path fill="#004D7A" d="M128.29,154.83c-0.32,0 -0.64,-0.07 -0.94,-0.23c-0.98,-0.52 -1.35,-1.73 -0.83,-2.70c7.08,-13.36 18.43,-24.42 31.96,-31.16c0.99,-0.49 2.19,-0.09 2.68,0.90c0.49,0.99 0.09,2.19 -0.90,2.68c-12.78,6.37 -23.51,16.83 -30.21,29.45C129.71,154.45 129.01,154.83 128.29,154.83z"/>
    <path fill="#004D7A" d="M224.66,125.66c-0.32,0 -0.65,-0.08 -0.95,-0.24c-10,-5.43 -21.33,-8.29 -32.78,-8.29c-4.67,0 -9.34,0.47 -13.88,1.40c-1.09,0.22 -2.14,-0.48 -2.36,-1.56c-0.22,-1.08 0.48,-2.14 1.56,-2.36c4.80,-0.98 9.74,-1.48 14.68,-1.48c12.12,0 24.11,3.04 34.69,8.78c0.97,0.53 1.33,1.74 0.80,2.71C226.06,125.29 225.37,125.66 224.66,125.66z"/>
    <path fill="#004D7A" d="M242.69,139.61c-0.54,0 -1.07,-0.21 -1.46,-0.63c-2.23,-2.38 -4.65,-4.63 -7.19,-6.68c-0.86,-0.69 -1,-1.95 -0.30,-2.81c0.69,-0.86 1.95,-1 2.81,-0.31c2.69,2.17 5.25,4.54 7.61,7.07c0.75,0.81 0.71,2.07 -0.10,2.83C243.67,139.43 243.18,139.61 242.69,139.61z"/>
    <path fill="#FFB819" d="M190.66,142.6c-23.95,0 -43.37,19.42 -43.37,43.37c0,23.95 19.42,43.37 43.37,43.37c23.95,0 43.37,-19.42 43.37,-43.37C234.03,162.02 214.61,142.6 190.66,142.6zM190.66,198.21c-6.76,0 -12.24,-5.48 -12.24,-12.24c0,-6.76 5.48,-12.24 12.24,-12.24c6.76,0 12.24,5.48 12.24,12.24C202.9,192.73 197.42,198.21 190.66,198.21z"/>
    <path fill="#D85C72" d="M355.64,101.53l-77.34,13.75v84.39c-3.64,-0.68 -7.70,-0.70 -11.99,0.06c-15.62,2.78 -28.28,14.85 -28.28,26.97c0,12.11 12.66,19.68 28.28,16.90c15.62,-2.78 28.28,-14.85 28.28,-26.97v-78.26l61.04,-10.86v58.40c-3.64,-0.68 -7.70,-0.70 -11.99,0.07c-15.62,2.78 -28.28,14.85 -28.28,26.97c0,12.11 12.66,19.68 28.28,16.90c15.62,-2.78 28.28,-14.85 28.28,-26.96V98.64L355.64,101.53z"/>
    <path fill="#D85C72" d="M40.27,141.61v84.39c-3.64,-0.68 -7.70,-0.70 -11.99,0.07C12.66,228.85 0,240.92 0,253.04c0,12.11 12.66,19.68 28.28,16.90c15.62,-2.78 28.28,-14.85 28.28,-26.97v-78.27l25.42,-4.52v-26L40.27,141.61z"/>
</svg>